<svg width="102" height="19" viewBox="0 0 102 19" fill="none" xmlns="http://www.w3.org/2000/svg">
<path fill-rule="evenodd" clip-rule="evenodd" d="M99.293 7.29291L100.707 8.70712L94.0001 15.4142L87.293 8.70712L88.7072 7.29291L94.0001 12.5858L99.293 7.29291Z" fill="#C7923E"/>
<path d="M1.70363 16V4.72H3.25563L9.79963 13.184H9.38363V4.72H11.3036V16H9.75163L3.22363 7.536H3.62363V16H1.70363ZM17.3498 16.16C16.5178 16.16 15.7978 15.9893 15.1898 15.648C14.5818 15.3067 14.1071 14.8213 13.7658 14.192C13.4351 13.5627 13.2698 12.816 13.2698 11.952C13.2698 11.088 13.4351 10.3467 13.7658 9.728C14.1071 9.09867 14.5818 8.61333 15.1898 8.272C15.7978 7.93067 16.5178 7.76 17.3498 7.76C18.1818 7.76 18.9018 7.93067 19.5098 8.272C20.1284 8.61333 20.6031 9.09867 20.9338 9.728C21.2751 10.3467 21.4458 11.088 21.4458 11.952C21.4458 12.816 21.2751 13.5627 20.9338 14.192C20.6031 14.8213 20.1284 15.3067 19.5098 15.648C18.9018 15.9893 18.1818 16.16 17.3498 16.16ZM17.3498 14.624C17.9791 14.624 18.4804 14.4053 18.8538 13.968C19.2271 13.52 19.4138 12.848 19.4138 11.952C19.4138 11.056 19.2271 10.3893 18.8538 9.952C18.4804 9.51467 17.9791 9.296 17.3498 9.296C16.7204 9.296 16.2191 9.51467 15.8458 9.952C15.4724 10.3893 15.2858 11.056 15.2858 11.952C15.2858 12.848 15.4724 13.52 15.8458 13.968C16.2191 14.4053 16.7204 14.624 17.3498 14.624ZM23.2345 16V9.984C23.2345 9.64267 23.2238 9.296 23.2025 8.944C23.1918 8.592 23.1652 8.25067 23.1225 7.92H25.0585L25.2825 10.128H24.9625C25.0692 9.59467 25.2452 9.152 25.4905 8.8C25.7465 8.448 26.0558 8.18667 26.4185 8.016C26.7812 7.84533 27.1758 7.76 27.6025 7.76C27.7945 7.76 27.9492 7.77067 28.0665 7.792C28.1838 7.80267 28.3012 7.82933 28.4185 7.872L28.4025 9.632C28.1998 9.54667 28.0238 9.49333 27.8745 9.472C27.7358 9.45067 27.5598 9.44 27.3465 9.44C26.8878 9.44 26.4985 9.536 26.1785 9.728C25.8692 9.92 25.6345 10.1867 25.4745 10.528C25.3252 10.8693 25.2505 11.2587 25.2505 11.696V16H23.2345ZM29.5958 16V9.984C29.5958 9.64267 29.5851 9.296 29.5638 8.944C29.5531 8.592 29.5264 8.25067 29.4838 7.92H31.4198L31.6438 10.128H31.3238C31.4304 9.59467 31.6064 9.152 31.8518 8.8C32.1078 8.448 32.4171 8.18667 32.7798 8.016C33.1424 7.84533 33.5371 7.76 33.9638 7.76C34.1558 7.76 34.3104 7.77067 34.4278 7.792C34.5451 7.80267 34.6624 7.82933 34.7798 7.872L34.7638 9.632C34.5611 9.54667 34.3851 9.49333 34.2358 9.472C34.0971 9.45067 33.9211 9.44 33.7078 9.44C33.2491 9.44 32.8598 9.536 32.5398 9.728C32.2304 9.92 31.9958 10.1867 31.8358 10.528C31.6864 10.8693 31.6118 11.2587 31.6118 11.696V16H29.5958ZM35.973 16V9.936C35.973 9.60533 35.9623 9.26933 35.941 8.928C35.9197 8.58667 35.8877 8.25067 35.845 7.92H37.781L37.941 9.52H37.749C37.973 8.96533 38.3143 8.53333 38.773 8.224C39.2423 7.91467 39.797 7.76 40.437 7.76C41.077 7.76 41.605 7.91467 42.021 8.224C42.4477 8.52267 42.7463 8.992 42.917 9.632H42.661C42.885 9.056 43.253 8.60267 43.765 8.272C44.277 7.93067 44.8637 7.76 45.525 7.76C46.4317 7.76 47.109 8.02667 47.557 8.56C48.005 9.09333 48.229 9.92533 48.229 11.056V16H46.229V11.136C46.229 10.496 46.1223 10.0373 45.909 9.76C45.6957 9.472 45.3543 9.328 44.885 9.328C44.3303 9.328 43.893 9.52533 43.573 9.92C43.253 10.304 43.093 10.8267 43.093 11.488V16H41.093V11.136C41.093 10.496 40.9863 10.0373 40.773 9.76C40.5597 9.472 40.2183 9.328 39.749 9.328C39.1943 9.328 38.757 9.52533 38.437 9.92C38.1277 10.304 37.973 10.8267 37.973 11.488V16H35.973ZM53.5636 16.16C52.8596 16.16 52.241 15.9947 51.7076 15.664C51.1743 15.3227 50.7583 14.8373 50.4596 14.208C50.161 13.5787 50.0116 12.8267 50.0116 11.952C50.0116 11.0773 50.161 10.3307 50.4596 9.712C50.7583 9.08267 51.1743 8.60267 51.7076 8.272C52.241 7.93067 52.8596 7.76 53.5636 7.76C54.2463 7.76 54.8436 7.93067 55.3556 8.272C55.8783 8.60267 56.225 9.05067 56.3956 9.616H56.2196L56.3956 7.92H58.3156C58.2836 8.25067 58.2516 8.58667 58.2196 8.928C58.1983 9.26933 58.1876 9.60533 58.1876 9.936V16H56.2036L56.1876 14.336H56.3796C56.209 14.8907 55.8623 15.3333 55.3396 15.664C54.817 15.9947 54.225 16.16 53.5636 16.16ZM54.1236 14.624C54.753 14.624 55.2596 14.4053 55.6436 13.968C56.0276 13.52 56.2196 12.848 56.2196 11.952C56.2196 11.056 56.0276 10.3893 55.6436 9.952C55.2596 9.51467 54.753 9.296 54.1236 9.296C53.4943 9.296 52.9876 9.51467 52.6036 9.952C52.2196 10.3893 52.0276 11.056 52.0276 11.952C52.0276 12.848 52.2143 13.52 52.5876 13.968C52.9716 14.4053 53.4836 14.624 54.1236 14.624ZM60.4455 16V4.224H62.4455V16H60.4455ZM64.6974 16V9.936C64.6974 9.60533 64.6867 9.26933 64.6654 8.928C64.644 8.58667 64.612 8.25067 64.5694 7.92H66.5054L66.6654 9.52H66.4734C66.6974 8.96533 67.0387 8.53333 67.4974 8.224C67.9667 7.91467 68.5214 7.76 69.1614 7.76C69.8014 7.76 70.3294 7.91467 70.7454 8.224C71.172 8.52267 71.4707 8.992 71.6414 9.632H71.3854C71.6094 9.056 71.9774 8.60267 72.4894 8.272C73.0014 7.93067 73.588 7.76 74.2494 7.76C75.156 7.76 75.8334 8.02667 76.2814 8.56C76.7294 9.09333 76.9534 9.92533 76.9534 11.056V16H74.9534V11.136C74.9534 10.496 74.8467 10.0373 74.6334 9.76C74.42 9.472 74.0787 9.328 73.6094 9.328C73.0547 9.328 72.6174 9.52533 72.2974 9.92C71.9774 10.304 71.8174 10.8267 71.8174 11.488V16H69.8174V11.136C69.8174 10.496 69.7107 10.0373 69.4974 9.76C69.284 9.472 68.9427 9.328 68.4734 9.328C67.9187 9.328 67.4814 9.52533 67.1614 9.92C66.852 10.304 66.6974 10.8267 66.6974 11.488V16H64.6974Z" fill="#11142D"/>
<a href="https://en.wikipedia.org/wiki/Norrmalm_(borough)">
<rect fill="black" fill-opacity="0" x="0.455627" y="-0.54" width="77.5378" height="20.08"/>
</a>
</svg>
